<svg width="537" height="216" viewBox="0 0 537 216" fill="none" xmlns="http://www.w3.org/2000/svg">
<path d="M515.476 197.438H8.78516V215.885H515.476V197.438Z" fill="#414549"/>
<path d="M31.3386 59.77C17.9111 59.77 7.03906 70.642 7.03906 84.069C7.03906 97.481 17.9111 108.369 31.3386 108.369C44.7509 108.369 55.6381 97.481 55.6381 84.069C55.6381 70.642 44.7509 59.77 31.3386 59.77ZM31.3386 95.41C25.0633 95.41 19.9827 90.329 19.9827 84.069C19.9827 77.794 25.0633 72.713 31.3386 72.713C37.6138 72.713 42.6945 77.794 42.6945 84.069C42.6793 90.329 37.5987 95.41 31.3386 95.41Z" fill="#1D1F21"/>
<path d="M36.0167 60.7657H26.6719L27.186 54.1577H35.4874L36.0167 60.7657Z" fill="#1D1F21"/>
<path d="M18.2294 63.9091L11.6215 70.5171L7.29688 65.4821L13.179 59.6001L18.2294 63.9091Z" fill="#1D1F21"/>
<path d="M7.87352 78.7148V88.0598L1.26562 87.5459V79.2289L7.87352 78.7148Z" fill="#1D1F21"/>
<path d="M11.0165 96.498L17.6244 103.106L12.5891 107.416L6.70703 101.549L11.0165 96.498Z" fill="#1D1F21"/>
<path d="M25.8242 106.858H35.169L34.6549 113.465H26.3383L25.8242 106.858Z" fill="#1D1F21"/>
<path d="M43.6094 103.713L50.2173 97.106L54.5268 102.141L48.6598 108.023L43.6094 103.713Z" fill="#1D1F21"/>
<path d="M53.9609 88.9089V79.5649L60.5688 80.0789V88.3949L53.9609 88.9089Z" fill="#1D1F21"/>
<path d="M50.7998 71.125L44.207 64.517L49.2423 60.207L55.1244 66.074L50.7998 71.125Z" fill="#1D1F21"/>
<path d="M0 163.914L67.0315 163.718L134.063 163.642L268.126 163.506L402.189 163.642L469.221 163.703L536.252 163.914L469.221 164.111L402.189 164.186L268.126 164.323L134.063 164.186L67.0315 164.111L0 163.914Z" fill="#1A2E35"/>
<path d="M14.7852 197.436L67.1342 177.279H469.112L521.461 197.436H14.7852Z" fill="#333333"/>
<path d="M71.8086 190.283L105.604 177.279H430.646L464.441 190.283H71.8086Z" fill="#1D1F21"/>
<path d="M271.517 187.64C269.264 188.502 203.745 189.697 201.174 188.23C200.902 188.064 200.978 185.176 200.01 177.691C199.965 177.328 198.468 175.952 196.139 173.986C187.384 166.637 166.789 151.153 166.789 151.153L198.891 124.283L231.159 153.905L239.4 161.995C239.4 161.995 266.164 176.451 268.826 178.356C271.457 180.292 273.77 186.779 271.517 187.64Z" fill="#C36358"/>
<path d="M271.519 187.638C269.266 188.515 203.746 189.694 201.176 188.228C200.904 188.061 200.979 185.173 200.012 177.688C199.966 177.34 198.469 175.949 196.141 173.984C193.101 171.428 191.65 170.264 187.113 166.741L228.681 151.453L231.176 153.903L239.417 162.008C239.417 162.008 266.181 176.463 268.842 178.369C271.458 180.289 273.772 186.776 271.519 187.638Z" fill="#7C7C7C"/>
<path d="M276.028 188.541C273.745 189.328 203.946 190.099 201.436 188.557C200.846 188.194 200.302 184.141 199.863 178.592C199.803 177.896 192.741 172.241 191.773 171.198L234.551 156.787L239.949 161.868C239.949 161.868 271.431 176.52 274.002 178.516C276.572 180.497 278.311 187.755 276.028 188.541Z" fill="url(#paint0_linear_69_554)"/>
<path d="M275.055 185.934C264.093 185.798 215.433 186.252 204.591 186.947C204.501 186.947 204.501 187.008 204.591 187.023C215.464 187.401 264.108 186.569 275.055 186.116C275.297 186.101 275.282 185.934 275.055 185.934Z" fill="#1D1F21"/>
<path d="M243.438 162.313C239.113 161.557 233.851 162.283 230.585 165.398C230.464 165.519 230.63 165.7 230.766 165.655C235 164.264 238.977 163.356 243.423 162.872C243.74 162.827 243.755 162.373 243.438 162.313Z" fill="#1D1F21"/>
<path d="M246.586 164.161C242.262 163.405 236.999 164.13 233.733 167.245C233.612 167.366 233.779 167.548 233.915 167.502C238.149 166.111 242.125 165.204 246.571 164.72C246.889 164.675 246.889 164.206 246.586 164.161Z" fill="#1D1F21"/>
<path d="M249.711 166.008C245.387 165.252 240.124 165.978 236.858 169.093C236.737 169.214 236.904 169.395 237.04 169.35C241.274 167.959 245.25 167.052 249.696 166.568C250.014 166.507 250.014 166.054 249.711 166.008Z" fill="#1D1F21"/>
<path d="M252.848 167.833C248.523 167.076 243.261 167.802 239.995 170.917C239.874 171.038 240.04 171.22 240.176 171.174C244.41 169.783 248.387 168.876 252.833 168.392C253.15 168.347 253.165 167.893 252.848 167.833Z" fill="#1D1F21"/>
<path d="M251.283 152.243C249.56 149.929 246.414 151.018 244.63 152.545C241.742 155.025 239.232 158.881 238.098 162.51C238.068 162.601 238.128 162.646 238.204 162.661C238.219 162.994 238.521 163.326 238.884 163.19C242.438 161.829 246.399 160.816 249.423 158.412C251.193 157.006 252.916 154.435 251.283 152.243ZM243.859 160.03C242.135 160.741 240.381 161.361 238.672 162.147C239.958 160.211 241.137 158.215 242.619 156.416C243.33 155.554 244.055 154.677 244.872 153.921C246.142 152.742 251.193 150.186 250.482 154.934C250.104 157.535 245.915 159.183 243.859 160.03Z" fill="#1D1F21"/>
<path d="M227.141 161.51C230.71 162.977 234.808 162.856 238.588 163.189C238.981 163.219 239.178 162.811 239.102 162.493C239.163 162.463 239.208 162.387 239.163 162.312C237.076 159.151 233.583 156.142 230.12 154.554C227.988 153.572 224.662 153.405 223.649 156.112C222.681 158.652 225.055 160.648 227.141 161.51ZM225.161 158.456C223.165 154.101 228.729 155.129 230.272 155.915C231.27 156.414 232.222 157.049 233.129 157.684C235.05 159.015 236.743 160.588 238.513 162.1C236.668 161.828 234.808 161.722 232.948 161.51C230.725 161.283 226.249 160.86 225.161 158.456Z" fill="#1D1F21"/>
<path d="M231.622 152.177L191.203 173.12C191.203 173.12 149.968 138.493 146.112 138.205C142.362 137.933 85.613 176.356 57.0948 176.477C27.5634 176.598 26.0664 145.66 26.0664 145.66L69.1462 135.771C100.205 120.468 132.549 92.9777 153.718 95.5337C176.702 98.3157 231.622 152.177 231.622 152.177Z" fill="#666666"/>
<path d="M221.745 146.846C214.925 150.218 216.83 149.16 210.056 152.607C206.729 154.286 190.021 162.723 187.193 164.81C187.133 164.855 187.193 164.961 187.253 164.946C190.595 163.827 207.123 155.042 210.404 153.288C217.133 149.719 215.152 150.672 221.835 147.043C221.971 146.967 221.881 146.786 221.745 146.846Z" fill="#1D1F21"/>
<path d="M184.045 163.463C176.137 156.493 151.127 137.304 150.068 136.457C149.221 135.777 148.375 134.9 147.377 134.431C146.53 134.038 145.698 134.25 144.882 134.628C143.687 135.187 142.508 135.792 141.328 136.382C138.999 137.516 136.656 138.665 134.327 139.799C125.27 144.214 116.273 148.751 107.139 153.03C98.3693 157.143 92.094 161.014 82.9307 164.174C73.8127 167.319 64.3923 169.708 54.8207 170.873C53.6413 171.024 52.4618 171.145 51.2673 171.251C51.1765 171.266 51.1765 171.387 51.2673 171.387C60.6725 170.933 69.9417 168.998 78.9388 166.246C88.0114 163.448 94.1807 159.834 102.8 155.858C111.736 151.745 120.537 147.344 129.352 142.974C134.01 140.661 138.637 138.332 143.309 136.049C144.367 135.535 145.88 134.416 147.074 134.96C147.588 135.202 148.027 135.626 148.465 135.989C148.979 136.412 149.493 136.85 150.023 137.274C152.019 138.937 182.881 162.783 183.924 163.569C184.015 163.63 184.121 163.539 184.045 163.463Z" fill="#1D1F21"/>
<path d="M54.6975 87.1117C58.9162 103.745 67.3084 123.614 70.7711 126.789C75.1562 130.811 103.72 137.722 105.141 137.843C108.664 138.115 115.121 112.711 111.371 112.258C105.67 111.562 84.9698 110.897 83.6996 109.657C82.3841 108.357 73.4173 97.5447 64.1632 85.3117C57.7822 76.8597 52.0815 76.7837 54.6975 87.1117Z" fill="#C36358"/>
<path d="M102.297 136.543C102.72 136.739 108.723 139.597 112.413 140.58C115.165 141.306 123.149 143.211 124.268 140.247C125.024 138.236 120.457 136.573 117.252 135.318C115.558 134.653 113.471 132.959 113.94 131.87C114.757 129.965 119.111 131.764 121.969 133.337C127.519 136.392 134.928 141.956 138.209 139.098C139.449 138.025 137.937 136.15 135.745 134.32C139.283 136.422 143.033 138.13 144.454 136.996C145.271 136.346 145.286 135.469 144.802 134.501C145.891 134.834 146.828 134.743 147.479 134.018C148.582 132.808 147.993 131.069 146.707 129.3C147.1 129.254 147.463 129.043 147.72 128.604C150.034 124.9 137.801 114.663 133.628 113.786C121.349 111.155 108.496 111.986 108.496 111.986C103.824 115.933 102.297 136.543 102.297 136.543Z" fill="#C36358"/>
<path d="M120.008 124.921C122.896 125.314 125.754 126.312 128.219 127.87C131.364 129.851 133.466 132.194 136.112 134.538C136.188 134.599 136.082 134.704 136.021 134.644C134.751 133.525 129.534 129.337 128.189 128.384C125.724 126.645 122.987 125.45 119.993 124.951C119.963 124.951 119.978 124.906 120.008 124.921Z" fill="#1D1F21"/>
<path d="M122.172 119.69C125.393 120.491 128.705 121.308 131.714 122.76C135.01 124.347 137.626 126.993 140.181 129.549C141.724 131.076 143.236 132.649 144.703 134.236C144.763 134.297 144.672 134.418 144.612 134.342C142.011 131.711 139.319 129.141 136.567 126.676C133.967 124.347 131.094 122.593 127.797 121.429C125.952 120.764 124.047 120.249 122.157 119.735C122.127 119.735 122.142 119.675 122.172 119.69Z" fill="#1D1F21"/>
<path d="M125.496 115.076C128.626 115.651 131.363 116.135 134.16 117.738C137.865 119.87 141.479 123.514 142.749 124.814C144.155 126.251 145.501 127.717 146.831 129.214C146.892 129.275 146.786 129.366 146.726 129.305C143.686 126.039 140.435 122.939 137.003 120.096C135.37 118.736 133.585 117.556 131.605 116.755C129.639 115.968 127.552 115.53 125.496 115.091C125.481 115.091 125.481 115.076 125.496 115.076Z" fill="#1D1F21"/>
<path d="M108.09 110.565L100.56 139.31C100.56 139.31 76.0336 133.61 71.3764 129.058C66.7191 124.507 57.344 100.298 54.3501 88.489C51.3561 76.679 57.4045 76.679 63.3168 83.922C69.2292 91.165 83.9419 108.721 84.7282 109.068C85.5296 109.431 108.09 110.565 108.09 110.565Z" fill="url(#paint1_linear_69_554)"/>
<path d="M97.9883 126.231C98.82 123.086 99.6818 119.956 100.393 116.78C100.801 114.981 101.209 113.167 101.602 111.367C101.617 111.291 101.496 111.261 101.481 111.337C100.529 114.452 99.5609 117.582 98.7444 120.757C97.9278 123.902 97.0962 127.048 96.325 130.208C95.8865 132.007 95.5084 133.807 95.1758 135.636C95.1758 135.667 95.2211 135.697 95.2363 135.651C96.3099 132.552 97.1566 129.391 97.9883 126.231Z" fill="#1D1F21"/>
<path opacity="0.1" d="M101.285 136.498L100.544 139.31C100.544 139.31 76.0179 133.61 71.3606 129.058C66.7034 124.507 57.3283 100.298 54.3344 88.489C51.3404 76.679 57.3888 76.679 63.3162 83.922C65.0703 86.084 67.6257 89.169 70.3626 92.435L101.285 136.498Z" fill="black"/>
<path d="M25.4413 148.212C25.4413 148.212 21.5552 176.307 35.8899 186.801C50.2246 197.31 152.488 192.532 167.836 186.998C183.184 181.464 182.836 156.393 165.674 151.161C149.343 146.186 80.5877 145.808 78.879 145.188C78.4556 145.037 84.8367 140.909 84.7913 140.667L69.005 136.418L25.4413 148.212Z" fill="#666666"/>
<path d="M46.6224 146.808C46.5921 146.687 46.4107 146.732 46.4258 146.853C46.5468 150.013 45.4883 153.37 43.4923 155.835C41.2091 158.662 37.7615 160.311 34.6314 162.034C34.329 162.201 34.586 162.67 34.8885 162.564C36.8088 161.913 38.6838 161.006 40.4228 159.963C41.9954 159.01 43.447 157.831 44.5206 156.319C46.5165 153.506 47.3028 150.164 46.6224 146.808Z" fill="#1D1F21"/>
<path d="M165.727 187.167C160.389 187.44 155.052 187.939 149.714 188.226C144.422 188.513 139.114 188.725 133.807 188.861C123.161 189.118 112.501 189.073 101.841 188.695C91.0746 188.317 79.4617 187.636 68.7408 186.517C63.6148 185.988 58.4283 185.565 53.3476 184.657C48.766 183.826 44.5774 182.087 41.0542 178.896C33.9171 172.424 30.908 162.671 29.4866 153.296C29.2901 152.041 29.1389 150.771 28.9877 149.516C28.9725 149.425 28.8516 149.441 28.8516 149.531C29.8042 159.163 31.6338 169.173 37.9695 176.719C40.7065 179.985 44.1389 182.631 48.1158 184.068C52.9545 185.822 58.2771 186.094 63.3426 186.608C74.0937 187.697 85.7671 188.423 96.5635 188.906C107.436 189.375 118.308 189.541 129.18 189.33C140.052 189.118 150.924 188.604 161.765 187.712C163.096 187.606 164.412 187.485 165.727 187.319C165.803 187.288 165.803 187.167 165.727 187.167Z" fill="#1D1F21"/>
<path d="M130.646 147.246C127.259 146.868 123.887 146.49 120.5 146.263C117.067 146.021 113.635 145.825 110.202 145.658C103.413 145.31 96.6084 145.023 89.8191 144.932C85.9632 144.887 82.1074 144.993 78.2515 145.174C78.1305 145.174 78.1456 145.356 78.2666 145.356C85.0711 145.749 91.8755 145.946 98.68 146.157C105.484 146.384 112.274 146.747 119.063 147.17C122.919 147.412 126.76 147.564 130.616 147.745C130.888 147.76 130.933 147.276 130.646 147.246Z" fill="#1D1F21"/>
<path d="M25.2709 151.002L79.7066 134.762L73.4918 115.12C73.4918 115.12 77.5896 108.724 75.5029 102.857C73.643 97.6247 60.4726 82.3827 57.8567 80.3867C53.3657 76.9547 45.5482 76.0627 41.4957 81.2487C24.8021 102.63 25.2709 151.002 25.2709 151.002Z" fill="#262626"/>
<path d="M42.8593 79.8721L50.6315 77.6641H50.6467C50.8281 77.6791 50.9793 77.6941 51.1456 77.7101L42.5267 80.1741C42.6174 80.0531 42.7384 79.9631 42.8593 79.8721ZM37.8694 86.7821L58.4491 80.9001C58.3886 80.8551 58.3433 80.7941 58.2828 80.7491L38.0055 86.5401C37.945 86.6311 37.9147 86.7071 37.8694 86.7821ZM34.8905 92.9361L62.4108 85.0731C62.3654 85.0281 62.305 84.9681 62.2596 84.9071L34.9813 92.6941C34.951 92.7701 34.9057 92.8461 34.8905 92.9361ZM32.6677 98.8491L66.0701 89.3221C66.0247 89.2771 65.9794 89.2171 65.934 89.1711L32.7282 98.6371C32.7131 98.6981 32.6829 98.7731 32.6677 98.8491ZM30.9288 104.625L69.5026 93.6171C69.4723 93.5711 69.427 93.5111 69.3816 93.4661L30.9742 104.413C30.9591 104.489 30.9439 104.564 30.9288 104.625ZM29.5377 110.31L72.7234 97.9871C72.6931 97.9411 72.6477 97.8811 72.6175 97.8201L29.5982 110.099C29.5679 110.174 29.5528 110.235 29.5377 110.31ZM28.4036 115.92L75.3544 102.523C75.3393 102.463 75.3091 102.402 75.2788 102.342L28.4339 115.709C28.4339 115.784 28.4187 115.86 28.4036 115.92ZM27.4964 121.47L76.05 107.619C76.0651 107.543 76.0651 107.483 76.0651 107.422L27.5266 121.273C27.5115 121.334 27.5115 121.409 27.4964 121.47ZM26.7705 126.974L74.432 113.38C74.4623 113.304 74.4925 113.229 74.5379 113.153L26.7857 126.777C26.7857 126.838 26.7705 126.898 26.7705 126.974ZM26.1959 132.433L74.5984 118.627L74.5379 118.446L26.2111 132.236C26.1959 132.281 26.1959 132.357 26.1959 132.433ZM25.7574 137.831L76.1256 123.466L76.0651 123.269L25.7726 137.619C25.7574 137.695 25.7574 137.77 25.7574 137.831ZM25.455 143.214L77.6679 128.32L77.6074 128.138L25.4701 143.002C25.455 143.078 25.455 143.138 25.455 143.214ZM25.2887 148.34C25.2736 148.415 25.2736 148.476 25.2887 148.536L79.18 133.158L79.1196 132.977L25.2887 148.34Z" fill="#1D1F21"/>
<path d="M65.2763 112.859C62.8267 113.902 60.3923 115.051 58.1241 116.443C56.99 117.138 55.9013 117.879 54.8277 118.65C54.2834 119.028 53.739 119.406 53.1946 119.769C52.62 120.147 52.0152 120.51 51.365 120.737C51.3045 120.752 51.3348 120.843 51.3952 120.828C52.0303 120.646 52.6503 120.48 53.2551 120.208C53.8297 119.951 54.3892 119.648 54.9336 119.316C56.0828 118.62 57.2017 117.864 58.3509 117.168C60.6644 115.747 62.978 114.31 65.3822 113.055C65.488 112.995 65.3973 112.813 65.2763 112.859Z" fill="#1D1F21"/>
<path d="M72.2651 113.16C70.1179 113.599 67.9556 114.143 65.8689 114.823C64.8256 115.171 63.7974 115.564 62.7842 115.988C62.3004 116.199 61.8165 116.411 61.3326 116.623C60.8034 116.865 60.3044 117.182 59.7752 117.409C59.7147 117.439 59.7449 117.53 59.8054 117.5C60.3195 117.288 60.8488 117.167 61.378 117.001C61.8921 116.819 62.4213 116.653 62.9355 116.472C63.9788 116.124 65.0222 115.776 66.0655 115.413C68.1371 114.687 70.2238 113.992 72.3256 113.341C72.4315 113.296 72.371 113.13 72.2651 113.16Z" fill="#1D1F21"/>
<path d="M46.1423 78.22C46.1423 78.22 51.8278 95.745 52.4931 110.625C53.5516 134.652 57.3621 168.659 58.5264 177.989C59.6756 187.318 31.0212 216.351 23.4305 212.994C19.7258 211.361 17.0796 191.25 20.7843 152.222C22.1603 137.752 28.118 102.353 36.7672 87.096C42.7854 76.406 46.1423 78.22 46.1423 78.22Z" fill="#D5C4F8"/>
<path d="M56.375 79.4341C61.6976 84.2881 72.373 100.996 73.6735 104.746C75.3217 109.479 73.492 115.134 73.492 115.134L79.7068 134.777L74.9436 115.316C74.9436 115.316 78.3307 110.084 76.6825 103.597C75.0344 97.1101 61.6069 83.5471 59.747 81.6111C57.8871 79.6761 56.375 79.4341 56.375 79.4341Z" fill="url(#paint2_linear_69_554)"/>
<path d="M47.1529 77.8149C47.1075 78.8589 50.041 86.4949 54.5622 87.5229C56.044 87.8559 58.2063 79.8719 58.2063 79.8719L58.4936 79.3119L62.6066 71.5699L54.6378 62.6939L53.4583 61.4839C53.4735 61.4999 47.1831 77.3769 47.1529 77.8149Z" fill="#C36358"/>
<path d="M53.4708 61.498C53.4708 61.498 51.9738 65.248 50.25 69.663C51.3538 74.472 57.2964 78.9781 58.491 79.326L62.6039 71.584L54.6351 62.693L53.4708 61.498Z" fill="#1D1F21"/>
<path d="M50.9127 58.0727C52.077 59.0857 53.7555 59.4337 55.2071 58.8287C56.6285 58.2237 57.566 56.8177 57.6718 55.3057C58.9874 56.3037 60.7263 56.6517 62.1779 55.5927C63.69 54.5047 63.9471 52.5687 63.1154 50.9807C63.1154 50.9657 63.0852 50.9807 63.1003 50.9957C63.69 52.5237 63.4178 54.3677 62.0116 55.3507C60.8019 56.1977 59.5166 56.0317 58.3976 55.4117C59.6073 55.5927 60.8775 55.3967 61.8603 54.6257C62.9339 53.7787 63.4481 52.3117 63.0549 50.9957C64.5519 50.5877 66.0186 49.6197 66.5781 48.1077C67.062 46.8377 66.7898 45.3407 65.8069 44.4187C67.183 43.7227 68.1205 42.2107 67.9995 40.6537C67.8785 39.1867 66.8805 37.9017 65.5499 37.3417C67.561 36.1477 67.6517 33.2137 65.686 31.8987C66.3211 31.3537 66.5328 30.4467 66.3059 29.6297C66.0338 28.6927 65.2475 28.0427 64.4007 27.5737C64.6275 26.7417 64.4763 25.7897 63.8714 25.1397C63.07 24.2617 61.7847 24.1717 60.8321 24.7767C60.1668 23.3697 59.2444 21.9337 57.7626 21.3137C56.5377 20.7997 55.0105 20.9207 54.073 21.8877C52.5458 19.5297 49.325 19.0457 47.1476 20.8297C46.2706 20.0587 45.0155 19.8767 43.9117 20.2707C42.7927 20.6637 42.1879 21.2077 41.9157 21.4947C41.0689 20.8747 39.8895 20.8897 39.0427 21.4947C38.1959 22.0997 37.8784 23.0067 37.7726 23.9747C37.6062 24.1867 37.4248 24.3527 37.1375 24.5037C35.8522 25.1847 34.9903 26.3637 34.8088 27.8157C33.1153 28.0727 31.9963 29.9477 32.5558 31.5657C30.9832 32.3517 30.333 34.4237 31.1647 35.9507C30.0003 36.6917 29.1838 37.9017 28.9872 39.2777C28.836 40.3357 29.1233 41.5757 30.0759 42.1197C29.4106 42.6347 29.4862 43.6777 29.9399 44.3427C30.1213 44.5997 30.333 44.8267 30.5598 45.0237C30.832 45.2657 31.2403 45.5227 31.4066 45.8547C31.5881 46.2027 31.4671 46.6257 31.4822 47.0047C31.4973 47.2617 31.5276 47.5337 31.6032 47.7907C32.1022 49.7257 34.0225 51.1167 36.0034 50.9807C36.0639 52.4027 37.2584 53.3857 38.5135 53.8687C38.9217 54.0357 39.3451 54.1107 39.7836 54.2017C40.1768 54.2777 40.5246 54.3677 40.827 54.6707C41.0085 54.8517 41.1597 55.0787 41.3411 55.2607C41.9611 55.8807 42.8079 55.9557 43.6395 55.9407C43.9268 59.7357 48.4934 60.5677 50.9127 58.0727ZM38.8613 22.0547C39.6778 21.2527 40.8119 21.1167 41.825 21.5857C41.7796 21.6467 41.7343 21.6917 41.7343 21.6917C41.7343 21.6917 41.3865 21.6307 41.205 21.6157C40.8875 21.6007 40.5699 21.6307 40.2524 21.7217C39.6022 21.8877 39.0125 22.2357 38.5588 22.7347C38.3623 22.9617 38.2111 23.2037 38.0599 23.4757C38.0447 23.5057 38.0296 23.5367 37.9994 23.5667C38.1808 23.0067 38.4076 22.4927 38.8613 22.0547ZM63.6144 25.9707C63.0247 25.1237 61.9208 24.7007 60.9228 24.9727C60.9077 24.9427 60.8926 24.9277 60.8926 24.8977C61.8755 24.4587 62.8886 24.3377 63.7051 25.2757C64.2797 25.9257 64.3251 26.6817 64.1134 27.4077H64.0983C64.0831 26.9087 63.9319 26.4097 63.6144 25.9707ZM43.7907 55.9557C43.8058 55.9557 43.821 55.9557 43.821 55.9557C44.6829 58.3447 47.2383 59.4487 49.4762 58.7227C47.072 59.6907 44.4107 59.1467 43.7907 55.9557Z" fill="#3E4042"/>
<path d="M75.4566 60.8128C75.003 76.1908 65.7489 77.6577 62.4374 77.5518C59.4283 77.4608 49.1914 76.7657 48.0422 61.4327C46.893 46.0997 54.1814 41.4427 61.0765 41.2917C67.9717 41.1247 75.8952 45.4348 75.4566 60.8128Z" fill="#C36358"/>
<path d="M73.4121 58.9519C73.0643 58.8619 72.7619 58.7099 72.4141 58.5739C72.036 58.4229 71.7185 58.3469 71.4766 57.9999C71.3405 57.8179 71.4161 57.4849 71.5824 57.3339C71.9756 57.0019 72.4897 57.0619 72.9584 57.2279C73.4574 57.4099 73.8052 57.6669 74.0925 58.1209C74.3496 58.5589 73.8657 59.0729 73.4121 58.9519Z" fill="#1D1F21"/>
<path d="M63.0238 57.7577C63.3867 57.7577 63.7194 57.6967 64.0823 57.6667C64.4905 57.6217 64.8081 57.6367 65.1407 57.3647C65.3222 57.2127 65.3373 56.8808 65.2163 56.6988C64.929 56.2758 64.4149 56.1998 63.9311 56.2308C63.4018 56.2608 62.9935 56.4267 62.6004 56.7897C62.2224 57.1377 62.5399 57.7577 63.0238 57.7577Z" fill="#1D1F21"/>
<path d="M65.0784 61.3481C65.0784 61.3031 64.9877 61.3941 64.9877 61.4391C64.9272 62.4821 64.6701 63.6771 63.7024 63.9341C63.6721 63.9491 63.6721 63.9951 63.7024 63.9951C64.8667 63.9341 65.1842 62.3461 65.0784 61.3481Z" fill="#1D1F21"/>
<path d="M64.2426 60.1678C62.5793 59.8808 62.1257 63.2368 63.668 63.4948C65.1952 63.7668 65.6489 60.4098 64.2426 60.1678Z" fill="#1D1F21"/>
<path d="M63.5599 60.255C63.2424 60.406 62.9097 60.709 62.5468 60.694C62.1385 60.678 61.8664 60.285 61.6547 59.907C61.6244 59.862 61.5942 59.892 61.5942 59.938C61.5035 60.573 61.6547 61.268 62.3351 61.465C62.9551 61.631 63.4843 61.132 63.7263 60.497C63.7716 60.391 63.696 60.195 63.5599 60.255Z" fill="#1D1F21"/>
<path d="M70.9958 61.9348C71.0109 61.8898 71.0714 61.9948 71.0714 62.0408C70.9504 63.0838 70.9958 64.2938 71.903 64.7168C71.9333 64.7318 71.9181 64.7778 71.8879 64.7778C70.7387 64.5058 70.7085 62.8878 70.9958 61.9348Z" fill="#1D1F21"/>
<path d="M72.0108 60.9219C73.7043 60.9369 73.5531 64.3089 71.9805 64.2939C70.4533 64.2789 70.6045 60.9069 72.0108 60.9219Z" fill="#1D1F21"/>
<path d="M72.7026 61.1617C72.9597 61.3577 73.2168 61.6907 73.5343 61.7207C73.8972 61.7657 74.1845 61.4037 74.4416 61.0707C74.4718 61.0407 74.4869 61.0707 74.4869 61.1157C74.4718 61.7657 74.2299 62.4317 73.6099 62.5217C73.0353 62.6127 72.6422 62.0387 72.5212 61.3877C72.5061 61.2667 72.5968 61.0857 72.7026 61.1617Z" fill="#1D1F21"/>
<path d="M63.1385 69.704C63.3048 70.007 63.4409 70.415 63.8038 70.551C64.1365 70.687 64.6052 70.657 64.953 70.642C64.9832 70.642 65.0135 70.687 64.9832 70.702C64.6052 71.005 63.9852 71.08 63.5467 70.854C63.1233 70.627 63.0175 70.173 63.0326 69.719C63.0326 69.659 63.1082 69.659 63.1385 69.704Z" fill="#1D1F21"/>
<path d="M68.6674 66.9437C68.6674 66.9437 68.501 68.5167 68.3196 69.2267C68.3045 69.2877 68.123 69.2877 67.8811 69.2417C67.866 69.2417 67.866 69.2417 67.8508 69.2417C66.5353 69.1217 65.371 68.3647 64.8569 67.1407C64.8266 67.0647 64.9325 67.0047 64.993 67.0647C65.7641 67.9867 66.7621 68.4257 67.8811 68.7277C67.9869 68.5467 68.0777 66.0367 68.1986 66.0517C68.5918 66.1117 69.3025 66.5807 69.7259 66.8227C70.1795 63.5567 70.0888 60.2607 70.5878 57.0247C70.6029 56.9037 70.7843 56.9187 70.7843 57.0247C71.117 60.4867 70.6785 64.2527 70.3005 67.6247C70.2702 68.0477 68.9244 67.1407 68.6674 66.9437Z" fill="#1D1F21"/>
<path d="M67.443 69.0339C67.443 69.0339 66.5508 69.7149 65.5679 69.7749C65.205 69.7899 64.8421 69.7449 64.5095 69.5329C63.8139 69.1099 63.9954 68.4139 64.3129 67.8699C64.57 67.4159 64.9177 67.0679 64.9177 67.0679C64.9177 67.0679 65.7192 68.4139 67.443 69.0339Z" fill="#1D1F21"/>
<path d="M65.5679 69.7727C65.205 69.7877 64.8421 69.7417 64.5095 69.5307C63.8139 69.1067 63.9954 68.4117 64.3129 67.8667C65.0992 68.1847 65.7343 68.9707 65.5679 69.7727Z" fill="#FF99BC"/>
<path d="M49.9181 63.167C52.7608 63.56 53.5622 57.028 53.5622 57.028C53.5622 57.028 63.4816 56.287 66.4453 46.398C66.4453 46.398 68.8798 51.524 75.2155 54.427C75.2155 54.427 74.8829 43.57 66.3093 41.393C66.3093 41.393 55.6641 37.416 49.6005 45.824C43.5219 54.246 48.0128 62.91 49.9181 63.167Z" fill="#3E4042"/>
<path d="M66.4583 45.6577C66.4886 47.1697 66.1257 48.6977 65.5208 50.1037C64.916 51.5097 64.0238 52.8257 62.8898 53.8837C62.6327 54.1707 62.3001 54.3827 61.9976 54.6247L61.544 54.9877C61.3777 55.0937 61.2113 55.1997 61.045 55.2897C60.7123 55.4867 60.3797 55.6987 60.047 55.8797C59.6992 56.0457 59.3363 56.1827 58.9885 56.3337C58.8071 56.4087 58.6408 56.4847 58.4593 56.5447L57.8998 56.7117L56.796 57.0287C56.0399 57.1647 55.299 57.2707 54.543 57.3617C55.2688 57.1197 55.9946 56.9537 56.7053 56.7117L57.7486 56.3187L58.2627 56.1217C58.4291 56.0457 58.5954 55.9557 58.7617 55.8647C59.0944 55.6987 59.4119 55.5167 59.7446 55.3657C60.0621 55.1847 60.3646 54.9727 60.667 54.7607L61.1357 54.4587L61.5591 54.1107C61.8313 53.8687 62.1488 53.6717 62.3908 53.3997C63.4795 52.4167 64.3263 51.1927 65.0218 49.8917C65.3696 49.2417 65.6569 48.5457 65.8837 47.8507C66.1559 47.1397 66.3222 46.4137 66.4583 45.6577Z" fill="#3E4042"/>
<path d="M51.4305 62.907C51.4305 62.907 48.6483 57.751 46.3499 58.688C44.0515 59.626 45.745 66.823 48.1795 68.078C50.614 69.318 51.8086 67.096 51.8086 67.096L51.4305 62.907Z" fill="#C36358"/>
<path d="M46.8941 60.7451C46.8487 60.7301 46.8336 60.7901 46.879 60.8051C48.5725 61.7281 49.3286 63.4971 49.7822 65.2811C49.3286 64.5551 48.6481 64.1171 47.6955 64.6461C47.6501 64.6761 47.6804 64.7521 47.7257 64.7521C48.4667 64.6761 48.9808 64.8731 49.4042 65.5081C49.7066 65.9611 49.888 66.5061 50.0846 67.0201C50.1451 67.1861 50.4475 67.1411 50.4022 66.9441C50.4022 66.9291 50.4022 66.9141 50.387 66.8991C50.7046 64.6461 49.2983 61.2591 46.8941 60.7451Z" fill="#1D1F21"/>
<path d="M47.0166 66.7867C46.9864 67.5127 45.0811 64.8817 45.0055 64.5037C44.9299 64.1257 43.5842 62.9307 43.2817 62.1897C42.9642 61.4337 42.435 59.2867 42.4198 58.7727C42.4047 58.2587 41.5882 56.9277 41.6789 56.0357C41.7696 55.1437 42.8281 47.2657 48.6195 42.4417C54.4108 37.6187 59.1588 37.7087 59.1588 37.7087C59.1588 37.7087 62.5157 37.4217 66.3564 38.0567C70.2123 38.6767 74.9603 48.2787 74.9452 48.4757C74.9452 48.6717 74.6276 49.2617 74.7486 49.8367C74.8847 50.3957 75.4139 51.0157 75.0661 51.5147C74.7184 52.0137 75.3686 53.4347 75.3081 53.9947C75.2476 54.5537 75.0813 54.6897 75.1418 55.0677C75.2022 55.4617 74.295 45.4357 62.7425 40.9297C62.7576 40.9147 47.7878 51.1667 47.0166 66.7867Z" fill="url(#paint3_linear_69_554)"/>
<path d="M75.1563 54.9487C75.1563 54.9797 75.1561 55.0247 75.1713 55.0557C75.1713 55.0857 75.1714 55.0397 75.1563 54.9487Z" fill="url(#paint4_linear_69_554)"/>
<path d="M75.1563 54.9487C75.1563 54.9797 75.1561 55.0247 75.1713 55.0557C75.1713 55.0857 75.1714 55.0397 75.1563 54.9487Z" fill="url(#paint5_linear_69_554)"/>
<path d="M71.4501 43.0608C71.5862 43.0308 71.7374 43.0308 71.8735 43.0608C72.1457 43.4538 72.4027 43.8468 72.6447 44.2398C72.5691 44.6338 72.2666 44.9658 71.8432 45.0418C71.2989 45.1478 70.7545 44.7848 70.6487 44.2398C70.5428 43.6958 70.8906 43.1668 71.4501 43.0608ZM65.7948 42.3498C66.3997 42.6978 66.9743 43.0458 67.5035 43.4238C67.6698 43.2118 67.7454 42.9248 67.685 42.6218C67.5791 42.0778 67.0499 41.7148 66.4904 41.8208C66.1729 41.8818 65.9309 42.0778 65.7948 42.3498ZM72.1608 47.9898C72.5539 48.5498 72.9168 49.1088 73.2193 49.6388C73.7031 49.4868 74.0056 48.9878 73.8997 48.4888C73.7939 47.9448 73.2646 47.5818 72.7051 47.6878C72.4935 47.7328 72.312 47.8388 72.1608 47.9898ZM51.0821 40.6258C51.2484 41.0798 51.7323 41.3518 52.2161 41.2618C52.7605 41.1558 53.1234 40.6258 53.0176 40.0818C52.9873 39.9008 52.9117 39.7488 52.7907 39.6288C52.2615 39.9008 51.6718 40.2328 51.0821 40.6258ZM50.5075 49.1548C50.6133 49.6988 51.1426 50.0618 51.6869 49.9558C52.2313 49.8498 52.5942 49.3208 52.4883 48.7768C52.3825 48.2318 51.8532 47.8688 51.3089 47.9748C50.7645 48.0808 50.4016 48.6098 50.5075 49.1548ZM63.7233 38.3428C63.8291 38.8878 64.3583 39.2498 64.9027 39.1448C65.447 39.0388 65.81 38.5098 65.7041 37.9498C65.0388 37.8588 64.3886 37.7988 63.7837 37.7378C63.7081 37.9198 63.6779 38.1318 63.7233 38.3428ZM58.0529 40.1278C58.1587 40.6718 58.6879 41.0348 59.2323 40.9288C59.7767 40.8228 60.1396 40.2938 60.0337 39.7488C59.9279 39.2048 59.3986 38.8418 58.8543 38.9478C58.3099 39.0538 57.947 39.5828 58.0529 40.1278ZM54.7262 44.7388C54.8321 45.2838 55.3613 45.6468 55.9057 45.5408C56.45 45.4348 56.8129 44.9058 56.7071 44.3608C56.6012 43.8168 56.072 43.4538 55.5277 43.5598C54.9833 43.6508 54.6204 44.1948 54.7262 44.7388ZM47.075 45.1778C47.1808 45.7218 47.7101 46.0848 48.2544 45.9788C48.7988 45.8728 49.1617 45.3438 49.0559 44.7998C48.95 44.2558 48.4208 43.8928 47.8764 43.9978C47.3321 44.1038 46.9691 44.6338 47.075 45.1778ZM46.3189 52.8438C46.4248 53.3888 46.954 53.7518 47.4984 53.6458C48.0427 53.5398 48.4056 53.0108 48.2998 52.4658C48.194 51.9218 47.6647 51.5588 47.1204 51.6648C46.5609 51.7708 46.2131 52.2998 46.3189 52.8438ZM46.0921 64.2908C46.1829 64.8048 46.6516 65.1378 47.1506 65.1068C47.2262 64.4418 47.3169 63.7918 47.453 63.1568C47.2867 63.0808 47.0901 63.0658 46.8935 63.0958C46.3492 63.2168 45.9863 63.7468 46.0921 64.2908ZM49.2373 56.3978C49.2675 56.5788 49.3583 56.7298 49.4641 56.8658C49.7212 56.2918 49.9934 55.7478 50.2655 55.2028C50.1899 55.2028 50.1143 55.2028 50.0236 55.2178C49.4944 55.3238 49.1315 55.8528 49.2373 56.3978ZM43.1889 50.2428C43.4157 50.4098 43.6879 50.4698 43.9752 50.4248C44.5195 50.3188 44.8824 49.7898 44.7766 49.2448C44.701 48.8368 44.3835 48.5198 43.9903 48.4438C43.6879 49.0488 43.4157 49.6538 43.1889 50.2428ZM44.5044 58.5448C44.6103 59.0888 45.1395 59.4518 45.6839 59.3458C46.2282 59.2398 46.5911 58.7108 46.4853 58.1668C46.3794 57.6228 45.8502 57.2598 45.3058 57.3648C44.7615 57.4558 44.3986 57.9848 44.5044 58.5448ZM42.5841 59.7848C42.6899 60.2688 42.8411 60.8428 42.9923 61.3268C43.1587 61.1148 43.2343 60.8128 43.1889 60.5258C43.1133 60.1778 42.8865 59.9208 42.5841 59.7848ZM41.707 55.6568C41.8734 55.7168 42.0548 55.7318 42.2363 55.7018C42.7806 55.5958 43.1435 55.0668 43.0377 54.5078C42.947 54.0388 42.5387 53.7058 42.0851 53.6908C41.8885 54.5528 41.7675 55.2328 41.707 55.6568Z" fill="#020001"/>
<path opacity="0.1" d="M44.9991 64.4997C44.9537 63.7897 45.0596 63.0637 45.1503 62.3527C45.241 61.6427 45.362 60.9317 45.4829 60.2207C45.7249 58.7997 45.9819 57.3937 46.3146 56.0017C46.3902 55.6547 46.4658 55.3067 46.5717 54.9587C46.6775 54.6407 46.859 54.3387 47.0555 54.0367C47.4336 53.4317 47.857 52.8567 48.2652 52.2667C48.6886 51.6777 49.112 51.1027 49.5505 50.5287L50.8509 48.8047C49.8983 49.8927 48.991 50.9967 48.114 52.1467C47.6755 52.7207 47.2521 53.2957 46.859 53.9157C46.6624 54.2177 46.4658 54.5357 46.3448 54.8987C46.239 55.2457 46.1634 55.5937 46.0727 55.9567C45.7702 57.3627 45.5132 58.7847 45.3015 60.2057C45.1956 60.9167 45.1049 61.6267 45.0293 62.3527C44.9991 62.7157 44.9688 63.0787 44.9537 63.4267C44.9386 63.7747 44.9386 64.1377 44.9991 64.4997Z" fill="#010000"/>
<path opacity="0.1" d="M47.029 49.8359C46.4091 50.4259 45.8345 51.0759 45.3052 51.7409C44.776 52.4219 44.277 53.1169 43.8536 53.8729C43.4302 54.6289 43.0371 55.4009 42.78 56.2319C42.5229 57.0489 42.3566 57.9109 42.402 58.7729C42.4322 58.5609 42.4473 58.3489 42.4625 58.1369C42.4625 58.0319 42.4927 57.9259 42.5229 57.8199L42.5986 57.5019C42.6288 57.3969 42.6439 57.2909 42.659 57.1849L42.7498 56.8819C42.8254 56.6859 42.8707 56.4739 42.9463 56.2779L43.1883 55.6879L43.4605 55.1129C43.5512 54.9169 43.657 54.7349 43.7478 54.5539C43.8536 54.3719 43.9443 54.1759 44.0653 53.9939C44.4887 53.2529 44.9726 52.5429 45.4564 51.8469C45.6984 51.4989 45.9554 51.1519 46.2276 50.8189C46.4847 50.4859 46.7568 50.1539 47.029 49.8359Z" fill="#010000"/>
<path opacity="0.1" d="M74.672 49.3489C74.3696 48.5779 73.9311 47.8969 73.4926 47.2019C73.0541 46.5059 72.6004 45.8409 72.1166 45.1759C71.6327 44.5099 71.1791 43.8449 70.6196 43.2399C70.0601 42.6349 69.4099 42.1209 68.6992 41.7129C69.0319 41.9549 69.3343 42.2119 69.6367 42.4989C69.9391 42.7709 70.2264 43.0589 70.4835 43.3759C70.7406 43.6789 70.9674 44.0109 71.2093 44.3439L71.92 45.3419L73.3414 47.3229C73.5833 47.6559 73.8101 47.9879 74.0369 48.3209C74.2638 48.6539 74.4755 49.0009 74.672 49.3489Z" fill="#010000"/>
<path opacity="0.1" d="M74.9747 51.8567C74.8084 51.2977 74.5664 50.7527 74.3245 50.2237C74.0825 49.6947 73.8104 49.1657 73.5079 48.6667C73.3567 48.4097 73.1904 48.1677 73.009 47.9257C72.8275 47.6987 72.6309 47.4717 72.4495 47.2447L71.8749 46.5797C71.6783 46.3677 71.4817 46.1407 71.2852 45.9297C71.4515 46.1717 71.6178 46.4137 71.7842 46.6557L72.2983 47.3657C72.4646 47.6077 72.646 47.8347 72.8275 48.0617C72.9938 48.2887 73.1602 48.5307 73.3114 48.7877C73.6138 49.2867 73.886 49.8007 74.1733 50.3147C74.3094 50.5717 74.4606 50.8287 74.5967 51.0857C74.7176 51.3277 74.8386 51.5847 74.9747 51.8567Z" fill="#010000"/>
<path opacity="0.1" d="M49.8164 41.5028C51.7217 42.5468 56.1068 44.8599 57.1501 44.8749C57.392 44.8749 57.7701 44.8299 58.2086 44.7699C60.7792 42.2899 62.76 40.9289 62.76 40.9289C64.2116 41.4879 65.4818 42.1379 66.6159 42.8489C67.9465 42.1989 69.4435 41.0649 69.9879 40.6419C68.7933 39.2809 67.5231 38.2519 66.3437 38.0559C62.4878 37.4359 59.1461 37.7078 59.1461 37.7078C59.1461 37.7078 55.0483 37.6318 49.8164 41.5028Z" fill="#010000"/>
<path d="M62.293 38.6781C62.293 38.6781 66.7839 33.9301 72.4543 34.4591C72.4543 34.4591 71.0934 39.9031 68.7648 41.2941C67.6156 41.9901 63.2002 41.4601 62.8373 40.6441C62.4744 39.8121 62.293 38.6781 62.293 38.6781Z" fill="url(#paint6_linear_69_554)"/>
<path d="M69.1778 34.7007C69.1476 35.1547 68.8149 35.5477 68.3613 35.6237C67.9833 35.6987 67.6204 35.5477 67.3936 35.2757C67.953 35.0487 68.5428 34.8517 69.1778 34.7007ZM69.6617 39.2067C69.7222 39.5097 69.9037 39.7517 70.1456 39.8877C70.5236 39.3427 70.8563 38.7387 71.1285 38.1187C70.9319 38.0127 70.6899 37.9667 70.448 38.0127C69.9188 38.1187 69.5559 38.6477 69.6617 39.2067ZM63.7494 38.3447C63.8552 38.8897 64.3845 39.2527 64.9288 39.1467C65.4732 39.0407 65.8361 38.5117 65.7303 37.9667C65.6244 37.4227 65.0952 37.0597 64.5508 37.1657C63.9913 37.2567 63.6435 37.7857 63.7494 38.3447Z" fill="#020001"/>
<path opacity="0.1" d="M62.293 38.6761C62.293 38.6761 62.4895 39.8101 62.8373 40.6271C62.8524 40.6571 62.8676 40.7021 62.9129 40.7331C62.9281 40.7631 62.9734 40.8081 63.0188 40.8391C63.049 40.8541 63.0793 40.8841 63.1246 40.8991C63.5783 41.2011 64.5006 41.4131 65.4986 41.5191C65.5289 40.7631 65.5289 39.7651 65.3928 39.0091C65.2869 38.3591 64.6821 37.6931 64.0621 37.1641C62.928 37.9961 62.293 38.6761 62.293 38.6761Z" fill="#010000"/>
<path d="M60.7727 39.1489C60.7727 39.1489 53.3181 36.3519 49.2656 37.2439C49.2656 37.2439 50.4451 41.6749 54.1044 43.4739C55.7374 44.2749 61.4532 42.1889 61.3625 41.2359C61.2717 40.2679 60.7727 39.1489 60.7727 39.1489Z" fill="url(#paint7_linear_69_554)"/>
<path d="M51.8549 39.2729C52.3993 39.1679 52.9285 39.5309 53.0344 40.0749C53.1402 40.6189 52.7773 41.1489 52.233 41.2539C51.6886 41.3599 51.1594 40.9969 51.0535 40.4529C50.9477 39.9089 51.3106 39.3789 51.8549 39.2729ZM58.0697 40.1349C58.1755 40.6799 58.7048 41.0429 59.2491 40.9369C59.7935 40.8309 60.1564 40.3019 60.0505 39.7569C59.9447 39.2129 59.4154 38.8499 58.8711 38.9559C58.3267 39.0619 57.9638 39.5909 58.0697 40.1349ZM55.2723 43.6589C55.5142 43.6589 55.7864 43.6279 56.0737 43.5829C55.9074 43.5229 55.741 43.5229 55.5747 43.5529C55.4537 43.5829 55.3479 43.6129 55.2723 43.6589Z" fill="#020001"/>
<path opacity="0.1" d="M59.0592 38.561C58.7719 39.241 58.4846 40.254 58.6661 41.146C58.7719 41.645 59.0592 42.144 59.407 42.628C60.5411 42.159 61.3727 41.615 61.3576 41.237C61.2669 40.284 60.7679 39.15 60.7679 39.15C60.7679 39.15 60.1026 38.893 59.0592 38.561Z" fill="#010000"/>
<path d="M59.5974 40.7259C59.9755 42.1019 61.412 42.9029 62.788 42.5249C64.164 42.1469 64.9654 40.71 64.5874 39.334C64.2094 37.958 62.7729 37.157 61.3968 37.535C60.0208 37.928 59.2194 39.3499 59.5974 40.7259Z" fill="url(#paint8_linear_69_554)"/>
<path d="M36.4603 87.344C24.6961 108.891 13.945 150.202 19.8876 156.25C26.4955 162.994 42.8413 132.843 42.3575 131.482C41.9946 130.469 43.9754 106.668 45.669 89.294C47.3625 71.935 39.3786 82.006 36.4603 87.344Z" fill="#FFC5C1"/>
<path d="M42.5189 131.47C42.5643 128.975 45.5129 97.5081 46.1177 87.6491C46.6621 78.8031 44.2276 75.9301 38.9655 82.8261C29.288 95.5121 12.9724 130.578 12.6246 146.41C12.2768 161.652 24.2224 159.489 31.8888 150.311C38.164 142.78 42.5189 131.47 42.5189 131.47Z" fill="#D5C4F8"/>
<path d="M42.1641 135.522C42.3002 132.573 42.4816 129.625 42.6782 126.676L43.3586 117.846L44.1752 109.015C44.4625 106.081 44.7951 103.133 45.158 100.199C45.0219 103.148 44.8405 106.097 44.6439 109.045L43.9635 117.876L43.1469 126.706C42.8596 129.655 42.527 132.589 42.1641 135.522Z" fill="#1A2E35"/>
<path d="M44.7039 107.047C44.6888 106.231 44.9005 105.49 45.097 104.749C45.3541 104.023 45.596 103.282 46.0648 102.602C46.0799 103.403 45.8682 104.144 45.6716 104.9C45.3995 105.641 45.1575 106.382 44.7039 107.047Z" fill="#1A2E35"/>
<path d="M20.7293 155.619C27.065 157.993 36.3796 152.882 61.0117 142.207C64.4139 140.725 60.4674 113.87 56.7476 115.261C52.0601 117.015 34.2475 124.818 33.0227 125.559C22.6345 131.758 16.4349 154.017 20.7293 155.619Z" fill="#C36358"/>
<path d="M57.5234 111.617C65.2049 108.154 67.6999 108.441 72.6293 102.06C75.8652 97.887 79.9177 98.144 78.9651 103.557C77.4076 112.403 68.4408 118.966 64.6757 120.342L57.5234 111.617Z" fill="#C36358"/>
<path d="M38.5156 125.579C38.5156 125.579 46.0459 117.943 53.8635 113.437C59.2768 110.322 71.2678 105.846 87.9916 114.011C92.407 116.173 94.9927 122.373 87.7195 120.649C82.412 119.394 79.6902 117.64 76.4694 117.686C76.4694 117.686 80.5974 125.685 78.2688 129.465C77.2255 131.143 74.2769 135.68 71.4795 138.87C71.4795 138.87 70.6176 138.447 69.6045 137.751C69.6045 137.751 67.0944 141.063 60.8947 142.272L38.5156 125.579Z" fill="#C36358"/>
<path d="M59.5078 111.272C62.7135 111.907 69.4877 113.358 74.6288 116.473C80.3295 119.936 90.3698 128.147 87.769 132.32C85.8638 135.39 81.7509 132.592 81.7509 132.592C81.7509 132.592 85.1833 136.856 82.8547 139.245C80.7377 141.423 77.6833 139.064 77.6833 139.064C77.6833 139.064 79.3164 142.013 76.8819 143.721C73.9333 145.778 70.9847 139.261 66.2064 138.762C65.1328 138.671 59.5078 111.272 59.5078 111.272Z" fill="#C36358"/>
<path d="M69.9517 121.895C72.8701 122.983 78.8731 127.157 81.7461 132.464C81.8066 132.585 81.7613 132.691 81.6705 132.6C77.2552 127.429 72.1745 123.482 69.9064 121.94C69.8912 121.94 69.9215 121.895 69.9517 121.895Z" fill="#1D1F21"/>
<path d="M66.6209 127.759C69.0403 128.954 75.0282 133.535 77.7651 139.009C77.8256 139.13 77.7651 139.236 77.6895 139.145C73.3044 133.55 68.753 129.483 66.5907 127.804C66.5604 127.789 66.5907 127.744 66.6209 127.759Z" fill="#1D1F21"/>
<path d="M51.0529 114.555L49.2233 153.885C49.2233 153.885 21.6274 159.903 16.3048 156.44C12.4943 153.96 21.2342 132.897 32.5145 125.654L51.0529 114.555Z" fill="url(#paint9_linear_69_554)"/>
<path d="M22.2673 138.902C22.8722 136.332 26.0627 129.905 32.5194 125.626C32.5799 125.596 32.6555 125.672 32.595 125.717C28.104 129.376 23.1595 136.528 22.3732 138.948C22.3429 139.008 22.2522 138.978 22.2673 138.902Z" fill="#1D1F21"/>
<path d="M42.7307 149.956C42.6097 146.161 42.6853 142.351 42.7761 138.54C42.8668 134.73 42.9575 130.919 43.139 127.124C43.2448 124.977 43.3355 122.829 43.517 120.682C43.517 120.622 43.6228 120.622 43.6228 120.682C43.7438 124.478 43.6833 128.288 43.6228 132.083C43.5624 135.894 43.4565 139.704 43.3053 143.515C43.2297 145.662 43.1087 147.809 42.9273 149.956C42.9122 150.062 42.7458 150.077 42.7307 149.956Z" fill="#1D1F21"/>
<path d="M50.8749 114.285C49.4989 114.845 48.2288 115.616 46.9586 116.357C45.6733 117.098 44.4031 117.869 43.1481 118.64C40.638 120.182 35.134 123.176 31.0815 126.684C31.0362 126.73 31.4595 126.745 31.5049 126.699C33.3497 124.93 49.635 115.737 50.8447 114.829C50.8598 114.935 50.8901 115.056 50.9203 115.162C50.9506 115.238 51.0564 115.268 51.0866 115.177C51.1471 114.966 51.1471 114.754 51.1925 114.527C51.2076 114.346 51.0413 114.209 50.8749 114.285Z" fill="#1D1F21"/>
<path d="M49.651 147.186C49.6207 149.424 49.5905 151.661 49.4998 153.899L49.4846 154.096L49.2729 154.141C46.4756 154.776 43.6479 155.291 40.8203 155.774C37.9927 156.273 35.1499 156.682 32.292 156.999C29.4342 157.332 26.5763 157.574 23.6882 157.604C22.2517 157.619 20.8 157.604 19.3635 157.407C18.6529 157.317 17.9271 157.196 17.2315 156.984C16.551 156.772 15.8252 156.485 15.3867 155.91C15.8857 156.455 16.5964 156.651 17.2768 156.818C17.9724 156.984 18.6831 157.045 19.3938 157.09C20.8152 157.166 22.2365 157.15 23.673 157.075C26.5158 156.908 29.3737 156.621 32.2013 156.258C37.8717 155.517 43.527 154.61 49.1671 153.612L48.9554 153.854C49.1369 151.631 49.409 149.408 49.651 147.186Z" fill="#1A2E35"/>
<path d="M121.506 147.025H58.9961V149.823H121.506V147.025Z" fill="#3E4042"/>
<path d="M85.9134 147.025L83.7812 149.838H135.042V147.025H85.9134Z" fill="#27292B"/>
<path d="M88.5977 149.836H149.52L161.889 108.465H100.967L88.5977 149.836Z" fill="#27292B"/>
<path d="M90.7188 149.836H151.626L163.995 108.465H103.088L90.7188 149.836Z" fill="#3E4042"/>
<path d="M124.811 129.154C124.418 131.195 125.748 132.859 127.805 132.859C129.846 132.859 131.842 131.195 132.235 129.154C132.629 127.113 131.298 125.449 129.241 125.449C127.185 125.434 125.204 127.098 124.811 129.154Z" fill="#414549"/>
<g opacity="0.73">
<path d="M76.1953 0.28302V34.865H81.0492V43.257L89.4413 34.865H135.485V0.28302H76.1953Z" fill="#282828"/>
<path d="M76.1966 0.286995L76.4234 34.869L76.1966 34.642L81.0504 34.627H81.2924V34.869L81.3075 43.261L80.869 43.08L89.2309 34.673L89.3216 34.582H89.4426L135.486 34.491L135.108 34.869L135.199 0.286995L135.486 0.574997L105.925 0.484001L76.1966 0.286995ZM76.1966 0.286995L105.758 0.0909958L135.486 0H135.773V0.286995L135.864 34.869V35.247H135.486L89.4426 35.156L89.6543 35.066L81.247 43.428L80.8085 43.866V43.246L80.8387 34.854L81.0807 35.096L76.2268 35.081H76V34.854L76.1966 0.286995Z" fill="url(#paint10_linear_69_554)"/>
</g>
<path d="M97.882 23.1171C98.4414 23.7071 98.4414 24.5841 97.882 25.1431C97.5947 25.4161 97.2469 25.5521 96.884 25.5521C96.5059 25.5521 96.143 25.4161 95.8406 25.1431L89.5049 18.7171C89.4293 18.7021 89.4142 18.6571 89.3839 18.5811C89.3688 18.5511 89.3083 18.5361 89.3083 18.5361C89.263 18.4751 89.263 18.4301 89.2479 18.3541C89.2025 18.3391 89.1723 18.2941 89.1723 18.2631C89.1571 18.2181 89.1571 18.1581 89.1269 18.1271C89.1269 18.0671 89.0815 18.0371 89.0815 18.0211C89.0815 17.9611 89.0815 17.9011 89.0815 17.8701C89.0815 17.8251 89.0664 17.8101 89.0664 17.7341C89.0664 17.7041 89.0815 17.6431 89.0815 17.6281C89.0815 17.5831 89.0815 17.5071 89.0815 17.4771C89.0815 17.4321 89.1269 17.4171 89.1269 17.3861C89.142 17.3261 89.142 17.2811 89.1723 17.2051C89.1723 17.1901 89.1874 17.1901 89.1874 17.1601C89.2327 17.0991 89.263 17.0081 89.2932 16.9631C89.2932 16.9631 89.2932 16.9181 89.3386 16.9181C89.3537 16.8721 89.3991 16.7971 89.4747 16.7661L95.8104 10.3401C96.3699 9.79613 97.2922 9.79613 97.8366 10.3401C98.3961 10.8991 98.3961 11.8071 97.8366 12.3661L92.5442 17.7191L97.882 23.1171Z" fill="url(#paint11_linear_69_554)"/>
<path d="M103.631 23.8298L109.165 10.6748C109.438 10.0398 110.163 9.75183 110.814 10.0248C111.419 10.2658 111.721 11.0228 111.449 11.6268L105.914 24.8128C105.703 25.2818 105.234 25.5538 104.765 25.5538C104.629 25.5538 104.448 25.5388 104.312 25.4628C103.661 25.2058 103.359 24.4648 103.631 23.8298Z" fill="url(#paint12_linear_69_554)"/>
<path d="M122.365 18.5377C122.365 18.5377 122.365 18.5527 122.35 18.5527C122.305 18.5977 122.259 18.6587 122.184 18.7187L115.848 25.1457C115.576 25.4177 115.198 25.5537 114.835 25.5537C114.457 25.5537 114.109 25.4177 113.822 25.1457C113.262 24.5857 113.262 23.6937 113.822 23.1197L119.175 17.7207L113.822 12.3227C113.262 11.7637 113.262 10.8567 113.822 10.2967C114.366 9.75267 115.289 9.75267 115.848 10.2967L122.184 16.7227C122.259 16.7687 122.305 16.8287 122.35 16.8747C122.365 16.8747 122.365 16.9197 122.365 16.9197C122.411 17.0107 122.456 17.0557 122.471 17.1167C122.471 17.1317 122.486 17.1317 122.486 17.1617C122.501 17.2377 122.501 17.2827 122.547 17.3737C122.547 17.3887 122.562 17.3887 122.562 17.4337C122.562 17.4797 122.562 17.5397 122.562 17.5847C122.562 17.5997 122.592 17.6757 122.592 17.6907C122.592 17.7057 122.562 17.7817 122.562 17.7967C122.562 17.8577 122.562 17.9027 122.562 17.9787C122.562 18.0087 122.547 18.0087 122.547 18.0237C122.501 18.1147 122.501 18.1747 122.486 18.2197C122.486 18.2357 122.471 18.2357 122.471 18.2807C122.441 18.3717 122.411 18.4467 122.365 18.5377Z" fill="url(#paint13_linear_69_554)"/>
<defs>
<linearGradient id="paint0_linear_69_554" x1="191.777" y1="173.113" x2="277.088" y2="173.113" gradientUnits="userSpaceOnUse">
<stop offset="0.000491962" stop-color="#9F7FF9"/>
<stop offset="1" stop-color="#EBE1F7"/>
</linearGradient>
<linearGradient id="paint1_linear_69_554" x1="53.5565" y1="109.134" x2="108.086" y2="109.134" gradientUnits="userSpaceOnUse">
<stop offset="0.000491962" stop-color="#9F7FF9"/>
<stop offset="1" stop-color="#EBE1F7"/>
</linearGradient>
<linearGradient id="paint2_linear_69_554" x1="56.37" y1="107.103" x2="79.6965" y2="107.103" gradientUnits="userSpaceOnUse">
<stop offset="0.000491962" stop-color="#9F7FF9"/>
<stop offset="1" stop-color="#EBE1F7"/>
</linearGradient>
<linearGradient id="paint3_linear_69_554" x1="41.6605" y1="52.2757" x2="75.3306" y2="52.2757" gradientUnits="userSpaceOnUse">
<stop offset="0.000491962" stop-color="#9F7FF9"/>
<stop offset="1" stop-color="#EBE1F7"/>
</linearGradient>
<linearGradient id="paint4_linear_69_554" x1="75.1564" y1="55.0027" x2="75.1704" y2="55.0027" gradientUnits="userSpaceOnUse">
<stop offset="0.000491962" stop-color="#9F7FF9"/>
<stop offset="1" stop-color="#EBE1F7"/>
</linearGradient>
<linearGradient id="paint5_linear_69_554" x1="75.1559" y1="55.0027" x2="75.17" y2="55.0027" gradientUnits="userSpaceOnUse">
<stop offset="0.000491962" stop-color="#9F80F9"/>
<stop offset="1" stop-color="#EBE1F7"/>
</linearGradient>
<linearGradient id="paint6_linear_69_554" x1="62.2872" y1="38.0121" x2="72.4455" y2="38.0121" gradientUnits="userSpaceOnUse">
<stop offset="0.000491962" stop-color="#9F7FF9"/>
<stop offset="1" stop-color="#EBE1F7"/>
</linearGradient>
<linearGradient id="paint7_linear_69_554" x1="49.2594" y1="40.3649" x2="61.3579" y2="40.3649" gradientUnits="userSpaceOnUse">
<stop offset="0.000491962" stop-color="#9F7FF9"/>
<stop offset="1" stop-color="#EBE1F7"/>
</linearGradient>
<linearGradient id="paint8_linear_69_554" x1="59.5073" y1="40.028" x2="64.6831" y2="40.028" gradientUnits="userSpaceOnUse">
<stop offset="0.000491962" stop-color="#9F7FF9"/>
<stop offset="1" stop-color="#EBE1F7"/>
</linearGradient>
<linearGradient id="paint9_linear_69_554" x1="15.3998" y1="136.034" x2="51.0509" y2="136.034" gradientUnits="userSpaceOnUse">
<stop offset="0.000491962" stop-color="#B196F9"/>
<stop offset="1" stop-color="#E2D5F8"/>
</linearGradient>
<linearGradient id="paint10_linear_69_554" x1="75.8013" y1="21.938" x2="135.883" y2="21.938" gradientUnits="userSpaceOnUse">
<stop offset="0.000491962" stop-color="#9F7FF9"/>
<stop offset="1" stop-color="#EBE1F7"/>
</linearGradient>
<linearGradient id="paint11_linear_69_554" x1="89.0823" y1="17.7191" x2="98.3078" y2="17.7191" gradientUnits="userSpaceOnUse">
<stop offset="0.000491962" stop-color="#9F7FF9"/>
<stop offset="1" stop-color="#EBE1F7"/>
</linearGradient>
<linearGradient id="paint12_linear_69_554" x1="103.535" y1="17.7378" x2="111.543" y2="17.7378" gradientUnits="userSpaceOnUse">
<stop offset="0.000491962" stop-color="#9F7FF9"/>
<stop offset="1" stop-color="#EBE1F7"/>
</linearGradient>
<linearGradient id="paint13_linear_69_554" x1="113.383" y1="17.7207" x2="122.608" y2="17.7207" gradientUnits="userSpaceOnUse">
<stop offset="0.000491962" stop-color="#9F7FF9"/>
<stop offset="1" stop-color="#EBE1F7"/>
</linearGradient>
</defs>
</svg>
